<svg width="24" height="24" viewBox="0 0 24 24" fill="none" xmlns="http://www.w3.org/2000/svg">
<path d="M10.7879 12.6629L12 11.4508L13.2121 12.6629C13.5782 13.029 14.1718 13.0291 14.5379 12.6629C14.9041 12.2968 14.9041 11.7032 14.5379 11.3371L12.6629 9.46211C12.2968 9.09596 11.7032 9.09596 11.3371 9.46211L9.46211 11.3371C9.09596 11.7032 9.09596 12.2968 9.46211 12.6629C9.82825 13.029 10.4218 13.0291 10.7879 12.6629Z" fill="white" fill-opacity="0.5"/>
<path d="M2.8125 7.5C3.32944 7.5 3.75 7.92056 3.75 8.4375V17.4375C3.75 21.0561 6.69394 24 10.3125 24H13.6875C17.3061 24 20.25 21.0561 20.25 17.4375V8.4375C20.25 7.92056 20.6706 7.5 21.1875 7.5C22.7383 7.5 24 6.23831 24 4.6875V2.8125C24 1.26169 22.7383 0 21.1875 0H17.625C15.8578 0 14.8125 1.56511 14.8125 2.61183C14.8125 4.09092 13.8095 5.36944 12.4793 5.58586C11.635 5.7232 10.8182 5.49961 10.1793 4.95623C9.54895 4.42017 9.1875 3.63881 9.1875 2.8125C9.1875 1.26169 7.92581 0 6.375 0H2.8125C1.26169 0 0 1.26169 0 2.8125V4.6875C0 6.23831 1.26169 7.5 2.8125 7.5ZM1.875 2.8125C1.875 2.29556 2.29556 1.875 2.8125 1.875H6.375C6.89194 1.875 7.3125 2.29556 7.3125 2.8125C7.3125 4.18964 7.91466 5.49159 8.96456 6.38452C10.0138 7.27688 11.4046 7.66031 12.7804 7.43653C14.9235 7.08787 16.5185 5.19431 16.6751 2.96555C16.6814 2.92687 16.6618 1.875 17.625 1.875H21.1875C21.7044 1.875 22.125 2.29556 22.125 2.8125V4.6875C22.125 5.20444 21.7044 5.625 21.1875 5.625C19.6367 5.625 18.375 6.88669 18.375 8.4375V17.4375C18.375 20.0222 16.2722 22.125 13.6875 22.125H10.3125C7.72781 22.125 5.625 20.0222 5.625 17.4375V8.4375C5.625 6.88669 4.36331 5.625 2.8125 5.625C2.29556 5.625 1.875 5.20444 1.875 4.6875V2.8125Z" fill="white" fill-opacity="0.5"/>
<path d="M13.6875 20.25C14.2053 20.25 14.625 19.8303 14.625 19.3125C14.625 18.7956 15.0456 18.375 15.5625 18.375C16.0803 18.375 16.5 17.9553 16.5 17.4375C16.5 16.9197 16.0803 16.5 15.5625 16.5C14.0117 16.5 12.75 17.7617 12.75 19.3125C12.75 19.8303 13.1697 20.25 13.6875 20.25Z" fill="white" fill-opacity="0.5"/>
<path d="M8.4375 18.375C8.95444 18.375 9.375 18.7956 9.375 19.3125C9.375 19.8303 9.79472 20.25 10.3125 20.25C10.8303 20.25 11.25 19.8303 11.25 19.3125C11.25 17.7617 9.98831 16.5 8.4375 16.5C7.91972 16.5 7.5 16.9197 7.5 17.4375C7.5 17.9553 7.91972 18.375 8.4375 18.375Z" fill="white" fill-opacity="0.5"/>
</svg>
