<svg width="24" height="24" viewBox="0 0 24 24" fill="none" xmlns="http://www.w3.org/2000/svg">
<g clip-path="url(#clip0_67_13507)">
<path d="M22.7475 0.473095C21.9633 -0.0497018 20.9757 -0.145421 20.1056 0.217158C20.1029 0.218283 20.1002 0.219454 20.0975 0.220626L13.0772 3.22424C12.7361 3.36585 12.3736 3.43766 12 3.43766C11.6264 3.43766 11.2639 3.36585 10.9228 3.22424L3.90253 0.220579C3.89981 0.219408 3.89709 0.218283 3.89438 0.217111C3.02433 -0.145467 2.03667 -0.0497486 1.25245 0.473048C0.468187 0.995892 0 1.87072 0 2.81324V17.6238C0 18.763 0.6795 19.7824 1.73114 20.2206C1.73433 20.222 1.73752 20.2233 1.74075 20.2245L10.2026 23.6415C10.7731 23.8786 11.3779 23.9988 12 23.9988C12.6221 23.9988 13.2268 23.8786 13.7973 23.6416L22.2593 20.2245C22.2625 20.2233 22.2657 20.222 22.2689 20.2206C23.3221 19.7818 24 18.7522 24 17.6238V2.81324C24 1.87072 23.5318 0.995892 22.7475 0.473095ZM22.125 17.6238C22.125 17.8967 22.013 18.0933 21.919 18.2102C21.8212 18.332 21.6942 18.4281 21.5516 18.4882C19.2424 19.4207 13.0861 21.9067 13.0809 21.9089C12.7387 22.0515 12.375 22.1238 12 22.1238C11.625 22.1238 11.2614 22.0515 10.9193 21.9089C10.9087 21.9045 11.1787 22.0137 2.44856 18.4883C2.09995 18.3412 1.875 18.0024 1.875 17.6238V2.81324C1.875 2.49439 2.02716 2.21005 2.29247 2.03319C2.55675 1.85703 2.8762 1.82544 3.16955 1.94638C10.3601 5.02283 10.1869 4.94881 10.1979 4.95345C10.7699 5.19177 11.3762 5.31261 12 5.31261C12.6238 5.31261 13.2301 5.19177 13.8021 4.95345C13.8126 4.949 13.5018 5.08194 20.8305 1.94638C21.1238 1.82544 21.4433 1.85703 21.7075 2.03319C21.9728 2.21005 22.125 2.49439 22.125 2.81324V17.6238Z" fill="white" fill-opacity="0.5"/>
<path d="M18.9519 15.5079L15.2019 17.0705C14.724 17.2697 14.498 17.8185 14.6971 18.2965C14.896 18.7737 15.4444 19.0007 15.9231 18.8013L19.6731 17.2386C20.151 17.0395 20.377 16.4906 20.1779 16.0127C19.9788 15.5347 19.4299 15.3088 18.9519 15.5079Z" fill="white" fill-opacity="0.5"/>
<path d="M18.9519 12.0723L15.2019 13.6349C14.724 13.8341 14.498 14.3829 14.6971 14.8609C14.896 15.3381 15.4444 15.5651 15.9231 15.3657L19.6731 13.8031C20.151 13.6039 20.377 13.0551 20.1779 12.5771C19.9788 12.0992 19.4299 11.8733 18.9519 12.0723Z" fill="white" fill-opacity="0.5"/>
<path d="M12 7.49805C11.4822 7.49805 11.0625 7.91777 11.0625 8.43555V19.498C11.0625 20.0158 11.4822 20.4355 12 20.4355C12.5178 20.4355 12.9375 20.0158 12.9375 19.498V8.43555C12.9375 7.91777 12.5178 7.49805 12 7.49805Z" fill="white" fill-opacity="0.5"/>
<path d="M19.8325 5.15746C19.5717 4.9836 19.2413 4.95154 18.9519 5.07214L15.2019 6.63463C14.8526 6.78018 14.625 7.12152 14.625 7.49999V11.25C14.625 11.5634 14.7817 11.8562 15.0425 12.03C15.2983 12.2005 15.6283 12.2382 15.9231 12.1153L19.6731 10.5528C20.0225 10.4073 20.25 10.0659 20.25 9.68746V5.93746C20.25 5.62405 20.0933 5.33132 19.8325 5.15746ZM18.375 9.06247L16.5 9.84374V8.12497L18.375 7.34371V9.06247Z" fill="white" fill-opacity="0.5"/>
</g>
<defs>
<clipPath id="clip0_67_13507">
<rect width="24" height="24" fill="white"/>
</clipPath>
</defs>
</svg>
