<svg width="64" height="64" viewBox="0 0 64 64" fill="none" xmlns="http://www.w3.org/2000/svg">
<path d="M62.1698 8.74947C61.2283 7.80635 59.7007 7.80472 58.7592 8.74547L29.8226 37.6057L19.3823 26.2666C18.4802 25.2873 16.955 25.2238 15.9741 26.1258C14.994 27.028 14.9312 28.554 15.8333 29.5341L27.9741 42.7192C28.4187 43.2025 29.041 43.4831 29.6971 43.4967C29.7147 43.4975 29.7317 43.4975 29.7486 43.4975C30.3862 43.4975 30.9996 43.2442 31.4515 42.794L62.1651 12.1608C63.109 11.2202 63.1106 9.6926 62.1698 8.74947Z" fill="#1EA87F"/>
<path d="M61.5879 29.5879C60.2556 29.5879 59.1759 30.6676 59.1759 32C59.1759 46.9854 46.9854 59.1759 32 59.1759C17.0155 59.1759 4.82412 46.9854 4.82412 32C4.82412 17.0155 17.0155 4.82412 32 4.82412C33.3322 4.82412 34.4121 3.74438 34.4121 2.41213C34.4121 1.07975 33.3322 0 32 0C14.355 0 0 14.355 0 32C0 49.6442 14.355 64 32 64C49.6442 64 64 49.6442 64 32C64 30.6677 62.9202 29.5879 61.5879 29.5879Z" fill="#1EA87F"/>
</svg>
