<svg width="16" height="17" viewBox="0 0 16 17" fill="none" xmlns="http://www.w3.org/2000/svg">
<g clip-path="url(#clip0_286_1424)">
<path d="M15.5423 2.68688C15.307 2.4511 14.9251 2.45069 14.6897 2.68588L7.45552 9.90094L4.84546 7.06616C4.61993 6.82135 4.23862 6.80547 3.9934 7.03097C3.74837 7.2565 3.73268 7.638 3.95821 7.88304L6.9934 11.1793C7.10456 11.3001 7.26012 11.3703 7.42415 11.3737C7.42856 11.3739 7.43281 11.3739 7.43702 11.3739C7.59643 11.3739 7.74977 11.3106 7.86274 11.198L15.5411 3.53972C15.7771 3.30457 15.7775 2.92266 15.5423 2.68688Z" fill="#FAA300"/>
<path d="M15.397 7.89697C15.0639 7.89697 14.794 8.16691 14.794 8.5C14.794 12.2463 11.7463 15.294 8 15.294C4.25387 15.294 1.20603 12.2463 1.20603 8.5C1.20603 4.75387 4.25387 1.70603 8 1.70603C8.33306 1.70603 8.60303 1.43609 8.60303 1.10303C8.60303 0.769938 8.33306 0.5 8 0.5C3.58875 0.5 0 4.08875 0 8.5C0 12.9111 3.58875 16.5 8 16.5C12.4111 16.5 16 12.9111 16 8.5C16 8.16694 15.7301 7.89697 15.397 7.89697Z" fill="#FAA300"/>
</g>
<defs>
<clipPath id="clip0_286_1424">
<rect width="16" height="16" fill="white" transform="translate(0 0.5)"/>
</clipPath>
</defs>
</svg>
