<svg width="24" height="24" viewBox="0 0 24 24" fill="none" xmlns="http://www.w3.org/2000/svg">
<g clip-path="url(#clip0_67_13487)">
<path d="M14.8594 24H9.1875C6.08588 24 3.5625 21.4766 3.5625 18.375V11.7727C3.5625 11.0563 3.15942 10.398 2.53566 10.0957C0.995297 9.34889 0 7.77806 0 6.09375C0 4.83436 0.549891 3.6443 1.50867 2.82877C2.29111 2.16314 3.07312 1.60134 3.83297 1.15889C4.71337 0.646219 5.73755 0.519375 6.71677 0.801937C7.69327 1.08361 8.52478 1.76419 8.99803 2.66916C9.60938 3.83803 10.5913 4.40625 12 4.40625C13.0148 4.40625 13.7961 4.12209 14.3884 3.53756C14.7569 3.17386 15.3505 3.1778 15.7142 3.54628C16.0779 3.91477 16.074 4.50834 15.7055 4.87209C14.758 5.80711 13.5113 6.28125 12 6.28125C9.33136 6.28125 7.99102 4.7895 7.33655 3.53808C7.09589 3.07791 6.69122 2.74603 6.19711 2.60348C5.71467 2.46431 5.21011 2.5267 4.77642 2.77922C4.11234 3.16594 3.42164 3.66309 2.72353 4.25695C2.18428 4.71567 1.875 5.38514 1.875 6.09375C1.875 7.06444 2.45536 7.97302 3.35358 8.40844C4.61953 9.02213 5.4375 10.3427 5.4375 11.7727V18.375C5.4375 20.4427 7.11975 22.125 9.1875 22.125H14.8594C16.9271 22.125 18.6094 20.4427 18.6094 18.375V11.7712C18.6094 10.3465 19.4222 9.02728 20.6801 8.41031C21.5714 7.9732 22.125 7.08558 22.125 6.09375V6.02658C22.125 5.33873 21.829 4.68075 21.3128 4.22128C20.3282 3.34505 18.3877 1.875 16.4531 1.875H11.0156C10.4978 1.875 10.0781 1.45528 10.0781 0.9375C10.0781 0.419719 10.4978 0 11.0156 0H16.4531C18.8805 0 21.1135 1.53394 22.5594 2.8207C23.4749 3.63562 24 4.80412 24 6.02658V6.09375C24 6.94252 23.76 7.76827 23.3061 8.4817C22.865 9.17503 22.2424 9.73247 21.5057 10.0938C20.8853 10.3981 20.4843 11.0565 20.4843 11.7712V18.375C20.4844 21.4766 17.961 24 14.8594 24ZM16.7344 19.3125C16.7344 18.7947 16.3147 18.375 15.7969 18.375H8.25C7.73222 18.375 7.3125 18.7947 7.3125 19.3125C7.3125 19.8303 7.73222 20.25 8.25 20.25H15.7969C16.3147 20.25 16.7344 19.8303 16.7344 19.3125Z" fill="white" fill-opacity="0.5"/>
</g>
<defs>
<clipPath id="clip0_67_13487">
<rect width="24" height="24" fill="white"/>
</clipPath>
</defs>
</svg>
