<svg width="20" height="20" viewBox="0 0 20 20" fill="none" xmlns="http://www.w3.org/2000/svg">
<path d="M13.0859 19.4814C12.7645 19.4814 12.4634 19.2816 12.3497 18.9614C12.2054 18.5548 12.4179 18.1082 12.8245 17.9638C16.1818 16.7714 18.4375 13.5752 18.4375 10.0104C18.4375 6.47984 16.2105 3.29394 12.8959 2.08281C12.4907 1.93472 12.2822 1.48617 12.4303 1.08089C12.5783 0.675659 13.0268 0.467026 13.4322 0.615229C15.3387 1.31187 16.9711 2.55785 18.1528 4.21847C19.3612 5.91664 20 7.91945 20 10.0104C20 14.2351 17.3265 18.023 13.3474 19.4362C13.261 19.4669 13.1727 19.4814 13.0859 19.4814ZM10.0426 19.3871C10.512 18.989 10.7812 18.4078 10.7812 17.7927V2.20691C10.7812 1.59175 10.512 1.01062 10.0426 0.612456C9.57453 0.215464 8.95938 0.0452684 8.35492 0.14519C6.04523 0.5273 3.93043 1.72128 2.40008 3.50714C0.852344 5.31339 0 7.61917 0 9.9998C0 12.3804 0.852344 14.6862 2.40008 16.4924C3.93043 18.2783 6.0452 19.4723 8.35488 19.8544C8.46844 19.8732 8.5823 19.8824 8.69563 19.8824C9.18531 19.8824 9.66246 19.7095 10.0426 19.3871ZM9.03188 1.80406C9.10324 1.86136 9.21875 1.99429 9.21875 2.20691V17.7927C9.21875 18.0053 9.10168 18.1363 9.03188 18.1955C8.96293 18.254 8.81617 18.347 8.60996 18.3128C4.52637 17.6373 1.5625 14.1411 1.5625 9.9998C1.5625 5.85847 4.52637 2.3623 8.60996 1.68675C8.64059 1.68167 8.82812 1.64042 9.03188 1.80406Z" fill="white"/>
<path d="M10 2V18.5L9.5 19H8.5H7L5.5 18L3.5 16.5L2 15L1 12L0.5 9.5L1 7L2.5 4.5L5.5 2L8.5 1H9.5L10 2Z" fill="white" fill-opacity="0.25"/>
</svg>
