<svg width="24" height="24" viewBox="0 0 24 24" fill="none" xmlns="http://www.w3.org/2000/svg">
<path d="M11.6974 13.7379L15.3125 10.0419C15.6743 9.67213 16.2673 9.66566 16.6371 10.0273C17.0069 10.389 17.0134 10.9821 16.6517 11.3519C16.6517 11.3519 13.0207 15.064 13.0163 15.0682C12.4593 15.616 11.7333 15.8892 11.0076 15.8892C10.2659 15.8892 9.52453 15.6038 8.9646 15.0344C8.42798 14.4888 8.13602 13.7668 8.14239 13.0015C8.14876 12.2362 8.4528 11.5193 8.99841 10.9827L12.7002 7.3152C13.0677 6.95112 13.6607 6.95393 14.0248 7.32138C14.3888 7.68888 14.3861 8.28193 14.0186 8.64601L10.3144 12.3159C10.123 12.5041 10.0178 12.7523 10.0156 13.0172C10.0001 13.5502 10.4658 14.0237 10.999 14.0172C11.2617 14.0176 11.5092 13.9202 11.6974 13.7379ZM12.0647 23.9974C12.0435 23.9975 12.0858 23.9974 12.0647 23.9974V23.9974ZM23.8731 10.3318C23.8008 9.81951 23.3266 9.46302 22.8147 9.53523C22.3024 9.60759 21.9458 10.0814 22.0181 10.5937C22.0864 11.0769 22.1197 11.5709 22.1171 12.062C22.1144 12.5762 22.0727 13.0925 21.9932 13.5967C21.9464 13.8931 21.7799 14.141 21.5244 14.2947C21.2643 14.4513 20.9473 14.4834 20.6549 14.3828C20.0834 14.1864 19.4846 14.0979 18.8745 14.1188C16.2936 14.2085 14.2016 16.3005 14.1118 18.8814C14.0906 19.4913 14.1794 20.0903 14.3759 20.6618C14.4764 20.9543 14.4443 21.2713 14.2877 21.5313C14.134 21.7868 13.8861 21.9534 13.5897 22.0001C13.0855 22.0797 12.5692 22.1214 12.055 22.124C6.62368 22.2431 1.76507 17.4539 1.88548 12.0083C1.77289 6.57093 6.56407 1.77947 12.0017 1.89224C12.5619 1.89224 13.1243 1.93889 13.673 2.03092C14.1832 2.11629 14.6661 1.77235 14.7516 1.26206C14.8372 0.751855 14.493 0.268958 13.9828 0.183394C6.81645 -1.12222 -0.0969254 4.72275 0.0121023 12.0085C-0.130083 18.4654 5.62384 24.1392 12.0647 23.9974C12.6731 23.9942 13.2845 23.9448 13.8818 23.8506C15.6232 23.6106 16.7514 21.6996 16.1475 20.0529C15.461 18.1641 16.925 16.0245 18.9396 15.991C19.3194 15.9777 19.6919 16.0327 20.0461 16.1544C20.8635 16.4352 21.7544 16.3426 22.4902 15.8998C23.2177 15.4621 23.711 14.7291 23.8436 13.8886C23.9379 13.2914 23.9872 12.6801 23.9905 12.0718C23.9935 11.4901 23.954 10.9047 23.8731 10.3318ZM22.8538 6.43127C23.5443 5.2204 23.9906 3.63289 23.9906 2.38699C23.9906 1.53931 23.53 0.72029 22.8172 0.300337C22.1998 -0.0635105 21.4932 -0.0769048 20.8787 0.263526C20.2003 0.639409 19.5653 0.853999 18.9513 1.06152C17.921 1.40967 16.8556 1.76968 15.9695 2.83472C15.3184 3.6173 15.0129 4.60524 15.1094 5.61637C15.2569 7.53475 17.0033 9.08943 18.9256 9.05772C20.4928 9.05772 21.8879 8.12495 22.8538 6.43127ZM21.8663 1.91435C21.988 1.986 22.1172 2.17605 22.1172 2.38699C22.1172 3.16067 21.8418 4.42428 21.2264 5.50327C20.5558 6.76828 19.0966 7.82746 17.671 6.74102C17.2706 6.41291 17.0231 5.95029 16.9742 5.43836C16.9255 4.92802 17.0801 4.42882 17.4095 4.03294C17.9569 3.37494 18.6256 3.14897 19.5511 2.83626C20.2116 2.61301 20.9603 2.36006 21.7866 1.90217C21.7961 1.89693 21.8033 1.89299 21.813 1.89299C21.8245 1.89295 21.8395 1.89857 21.8663 1.91435ZM12.9848 4.9364C12.9848 5.58303 12.4606 6.10723 11.814 6.10723C10.2626 6.04981 10.263 3.82276 11.814 3.76557C12.4606 3.76557 12.9848 4.28978 12.9848 4.9364ZM8.76982 6.7629C8.76982 7.40952 8.24561 7.93373 7.59899 7.93373C6.04759 7.87631 6.04801 5.64925 7.59899 5.59207C8.24561 5.59207 8.76982 6.11627 8.76982 6.7629ZM6.28766 10.4627C6.28766 11.1093 5.76345 11.6335 5.11683 11.6335C3.56543 11.5761 3.56585 9.34907 5.11683 9.29189C5.76345 9.29189 6.28766 9.81609 6.28766 10.4627ZM5.77249 13.6942C6.41912 13.6942 6.94332 14.2184 6.94332 14.865C6.8859 16.4164 4.65884 16.416 4.60166 14.865C4.60166 14.2184 5.12587 13.6942 5.77249 13.6942Z" fill="white" fill-opacity="0.5"/>
</svg>
