<svg width="20" height="21" viewBox="0 0 20 21" fill="none" xmlns="http://www.w3.org/2000/svg">
<g clip-path="url(#clip0_67_13447)">
<path fill-rule="evenodd" clip-rule="evenodd" d="M19.9153 9.19397H11.3045V0.5832C10.4384 0.472267 9.56166 0.472267 8.69556 0.5832V9.19397H0.0847874C-0.0280997 10.0607 -0.0280997 10.9385 0.0847874 11.8052H8.69556V20.416C9.56166 20.5269 10.4384 20.5269 11.3045 20.416V11.8052H19.9153C20.0281 10.9385 20.0281 10.0607 19.9153 9.19397ZM6.08741 5.27764V3.9761H4.77806V5.27608H3.47652V6.58152H4.77649V7.88696H6.08076V6.58308H7.3866V5.27764H6.08741ZM15.2165 3.9761V5.27608H16.5267V6.58152H15.2224V7.88696H13.9123V6.58269H12.608V5.27725H13.9123V3.9761H15.2165ZM6.08741 14.4103V13.1103H4.77806V14.4103H3.47652V15.7157H4.77649V17.0227H6.08076V15.7212H7.3866V14.4157L6.08741 14.4103ZM15.2165 13.1107V14.4107L16.5267 14.4161V15.7216H15.2224V17.0227H13.9123V15.7161H12.608V14.4107H13.9123V13.1107H15.2165Z" fill="white"/>
</g>
<defs>
<clipPath id="clip0_67_13447">
<rect width="20" height="20" fill="white" transform="translate(0 0.5)"/>
</clipPath>
</defs>
</svg>
