<svg width="21" height="20" viewBox="0 0 21 20" fill="none" xmlns="http://www.w3.org/2000/svg">
<g clip-path="url(#clip0_73_157)">
<path d="M10.4736 19.1772C9.36391 19.1773 8.25447 18.8183 7.32778 18.1001L7.32465 18.0976C5.30201 16.5269 3.69732 14.8368 2.55505 13.0742C1.1691 10.9356 0.466309 8.69077 0.466309 6.40219C0.466309 3.32549 2.88621 0.822384 5.86064 0.822384C7.64014 0.810352 9.42332 1.71774 10.4574 3.17604C13.5899 -1.12419 20.4256 0.811368 20.4799 6.41739C20.376 11.7499 16.693 15.7125 13.6217 18.0976C12.6951 18.8173 11.5843 19.1771 10.4736 19.1772ZM8.2825 16.8626C9.5721 17.8643 11.3733 17.8649 12.6623 16.8639C15.4632 14.6887 18.821 11.1071 18.9165 6.39477C18.9127 4.18296 17.1957 2.3849 15.0857 2.3849C12.8932 2.3849 11.255 4.03475 11.255 5.50992C11.255 5.94141 10.905 6.29118 10.4732 6.29118C10.0414 6.29118 9.6914 5.94141 9.6914 5.50992C9.66806 3.80225 7.56079 2.31333 5.86064 2.38494C3.74837 2.3849 2.02988 4.18706 2.02988 6.40219C2.02988 11.0337 5.42968 14.6468 8.2825 16.8626Z" fill="white" fill-opacity="0.3"/>
</g>
<defs>
<clipPath id="clip0_73_157">
<rect width="20.0136" height="20" fill="white" transform="translate(0.466309)"/>
</clipPath>
</defs>
</svg>
