<svg width="20" height="20" viewBox="0 0 20 20" fill="none" xmlns="http://www.w3.org/2000/svg">
<path d="M10.0005 19.1772C8.89155 19.1773 7.78287 18.8183 6.85681 18.1001L6.85369 18.0976C4.83242 16.5269 3.22881 14.8368 2.08732 13.0742C0.70231 10.9356 0 8.69077 0 6.40219C0 3.32549 2.41826 0.822384 5.39067 0.822384C7.16896 0.810352 8.95093 1.71774 9.98434 3.17604C13.1147 -1.12419 19.9457 0.811368 20 6.41739C19.8962 11.7499 16.2157 15.7125 13.1465 18.0976C12.2204 18.8173 11.1104 19.1771 10.0005 19.1772ZM7.81088 16.8626C9.0996 17.8643 10.8995 17.8649 12.1877 16.8639C14.9867 14.6887 18.3423 11.1071 18.4376 6.39477C18.4339 4.18296 16.718 2.3849 14.6095 2.3849C12.4185 2.3849 10.7813 4.03475 10.7813 5.50992C10.7813 5.94141 10.4316 6.29118 10.0001 6.29118C9.56859 6.29118 9.21882 5.94141 9.21882 5.50992C9.1955 3.80225 7.08966 2.31333 5.39067 2.38494C3.27983 2.3849 1.56251 4.18706 1.56251 6.40219C1.56251 11.0337 4.96 14.6468 7.81088 16.8626Z" fill="white"/>
<path d="M8 18.125H10H11.5L14 16.125L16 14.625L17 13.125L17.5 11.625L18.5 10.125L19 8.125V6.625V4.625L18 3.125L16.5 2.125L15.5 1.625H14L12.5 2.125L11.5 2.625L10 4.125L9.5 3.625L8.5 2.625L7.5 2.125L5.5 1.625H4.5L3.5 2.125L3 2.625L2 3.625L1 5.125L0.5 7.125L1 9.125L2 11.625L3.5 13.625L6 16.625L8 18.125Z" fill="white" fill-opacity="0.25"/>
</svg>
