<svg width="24" height="24" viewBox="0 0 24 24" fill="none" xmlns="http://www.w3.org/2000/svg">
<g clip-path="url(#clip0_67_13503)">
<path d="M0.93905 24.0001C0.692704 24.0001 0.453578 23.9029 0.276096 23.7254C0.0575958 23.507 -0.0392081 23.1949 0.0172804 22.8911C0.0172804 22.8911 0.568336 19.9273 0.569133 19.9231C0.862404 18.4559 1.57664 17.1212 2.63464 16.0632L14.2483 4.53634C14.6159 4.17158 15.2095 4.17383 15.5742 4.54131C15.939 4.90884 15.9368 5.50246 15.5693 5.86722L3.95807 17.3916C3.16671 18.183 2.63033 19.1841 2.40911 20.2846L2.11045 21.8911L3.71678 21.5924C4.81739 21.3712 5.81848 20.8348 6.61237 20.0409L18.1852 8.52194C18.5522 8.15667 19.1458 8.15807 19.5111 8.52504C19.8764 8.89205 19.875 9.48567 19.508 9.85095L7.93677 21.3684C6.88028 22.4249 5.54555 23.1391 4.07836 23.4324C4.07423 23.4332 1.11039 23.9842 1.11039 23.9842C1.05339 23.9949 0.996007 24.0001 0.93905 24.0001ZM4.88677 11.44C5.25111 11.0721 5.24821 10.4785 4.88026 10.1141L2.42584 7.68376C1.69473 6.95264 1.69473 5.76301 2.42584 5.0319L5.0351 2.42265C5.76626 1.69153 6.95584 1.69153 7.68372 2.41936L10.1173 4.87701C11.0277 5.72612 12.2895 4.47536 11.4497 3.55762L9.01291 1.09669C7.55064 -0.365587 5.17147 -0.36554 3.70923 1.09669L1.09998 3.70594C-0.362294 5.16822 -0.362294 7.54748 1.10322 9.01295L3.56086 11.4465C3.74364 11.6275 3.98211 11.7179 4.22054 11.7179C4.46201 11.7179 4.70343 11.6252 4.88677 11.44ZM20.2919 22.898L22.9012 20.2887C24.3634 18.8265 24.3634 16.4473 22.9045 14.9883L20.591 12.652C20.2266 12.2841 19.633 12.2812 19.2651 12.6455C18.8971 13.0098 18.8942 13.6035 19.2586 13.9714L21.5753 16.3109C22.3064 17.042 22.3064 18.2317 21.5753 18.9628L18.966 21.5721C18.2349 22.3032 17.0453 22.3033 16.3109 21.5689L13.9746 19.2554C13.0558 18.4153 11.8065 19.6782 12.6552 20.5878L14.9882 22.898C15.7193 23.6291 16.6797 23.9947 17.64 23.9947C18.6005 23.9947 19.5608 23.6292 20.2919 22.898ZM21.5184 7.45199C20.7122 7.45724 20.2741 6.47341 20.8309 5.87725C20.8309 5.87725 21.5704 5.07934 21.5789 5.0709C22.3063 4.37288 22.3063 3.11706 21.5789 2.41908C20.8809 1.69167 19.625 1.69162 18.927 2.41908L18.1955 3.14739C17.8285 3.51271 17.2349 3.51135 16.8695 3.14438C16.5043 2.77742 16.5056 2.1838 16.8725 1.81848L17.6026 1.09172C18.9971 -0.361368 21.5101 -0.36118 22.9048 1.09327C24.3543 2.4841 24.3605 4.98535 22.9183 6.38326L22.2064 7.15169C22.0217 7.35102 21.7704 7.45199 21.5184 7.45199ZM7.22741 7.69304L8.30561 6.61484C9.15022 5.70019 7.89332 4.44465 6.9797 5.28893L5.9015 6.36713C5.31018 6.95508 5.7416 7.97267 6.56446 7.96765C6.80443 7.96765 7.04435 7.8761 7.22741 7.69304ZM17.8219 18.1938L18.8533 17.1625C19.6979 16.2478 18.441 14.9923 17.5273 15.8366L16.496 16.8679C15.9047 17.4558 16.3361 18.4734 17.159 18.4684C17.3989 18.4684 17.6389 18.3769 17.8219 18.1938Z" fill="white" fill-opacity="0.5"/>
</g>
<defs>
<clipPath id="clip0_67_13503">
<rect width="24" height="24" fill="white"/>
</clipPath>
</defs>
</svg>
