<svg width="20" height="20" viewBox="0 0 20 20" fill="none" xmlns="http://www.w3.org/2000/svg">
<g clip-path="url(#clip0_67_13462)">
<path d="M6.66663 10.834L4.16663 3.75065V3.33398L19.5833 3.75065L18.3333 8.75065L17.5 9.58398L11.6666 10.4173L6.66663 10.834Z" fill="white" fill-opacity="0.25"/>
<path d="M6.37996 15.5566C5.22678 15.5566 4.29199 16.4915 4.29199 17.6446C4.29199 18.7978 5.22682 19.7326 6.37996 19.7326C7.53313 19.7326 8.46792 18.7977 8.46792 17.6446C8.46796 16.4915 7.53313 15.5566 6.37996 15.5566ZM6.37996 18.8046C5.73931 18.8046 5.21999 18.2853 5.21999 17.6446C5.21999 17.004 5.73931 16.4847 6.37996 16.4847C7.0206 16.4847 7.53993 17.004 7.53993 17.6446C7.53997 18.2853 7.0206 18.8046 6.37996 18.8046Z" fill="white"/>
<path d="M15.1959 15.5566C14.0427 15.5566 13.1079 16.4915 13.1079 17.6446C13.1079 18.7978 14.0427 19.7326 15.1959 19.7326C16.349 19.7326 17.2838 18.7977 17.2838 17.6446C17.2838 16.4915 16.3491 15.5566 15.1959 15.5566ZM15.1959 18.8046C14.5552 18.8046 14.0359 18.2853 14.0359 17.6446C14.0359 17.004 14.5552 16.4847 15.1959 16.4847C15.8365 16.4847 16.3558 17.004 16.3558 17.6446C16.3559 18.2853 15.8365 18.8046 15.1959 18.8046Z" fill="white"/>
<path d="M19.9054 3.37639C19.8088 3.27084 19.6766 3.20476 19.5342 3.19077L4.43117 2.98198L4.01358 1.70597C3.71939 0.85298 2.92062 0.277125 2.01838 0.267578H0.463997C0.207731 0.267578 0 0.475309 0 0.731575C0 0.987841 0.207731 1.19557 0.463997 1.19557H2.01838C2.52287 1.20672 2.96711 1.53066 3.13199 2.00758L6.07836 10.8931L5.84639 11.4267C5.58763 12.0939 5.66534 12.8449 6.05518 13.4451C6.44129 14.0345 7.09086 14.3983 7.79518 14.4195H16.8199C17.0762 14.4195 17.2839 14.2117 17.2839 13.9555C17.2839 13.6992 17.0762 13.4915 16.8199 13.4915H7.79514C7.3974 13.4815 7.03127 13.2723 6.82074 12.9347C6.61257 12.6012 6.5698 12.1903 6.70475 11.8211L6.89037 11.4035L16.6575 10.3827C17.7303 10.2645 18.6129 9.48419 18.8615 8.43386L19.9751 3.77071C20.0253 3.63643 19.9986 3.4854 19.9054 3.37639ZM17.9567 8.22511C17.806 8.90123 17.232 9.39995 16.5415 9.45471L6.89037 10.4523L4.73278 3.90997L18.9542 4.11876L17.9567 8.22511Z" fill="white"/>
</g>
<defs>
<clipPath id="clip0_67_13462">
<rect width="20" height="20" fill="white"/>
</clipPath>
</defs>
</svg>
