<svg width="24" height="24" viewBox="0 0 24 24" fill="none" xmlns="http://www.w3.org/2000/svg">
<path d="M18.375 9.98366H5.625C2.52338 9.98366 0 12.507 0 15.6087V18.3743C0 21.4759 2.52338 23.9993 5.625 23.9993H18.375C21.4766 23.9993 24 21.4759 24 18.3743V15.6087C24 12.507 21.4766 9.98366 18.375 9.98366ZM22.125 18.3743C22.125 20.442 20.4427 22.1243 18.375 22.1243H5.625C3.55725 22.1243 1.875 20.442 1.875 18.3743V15.6087C1.875 13.5409 3.55725 11.8587 5.625 11.8587H6.14062V12.7024C6.19012 13.9463 7.96655 13.9453 8.01562 12.7024V11.8587H15.9375V12.7024C15.987 13.9463 17.7634 13.9453 17.8125 12.7024V11.8587H18.375C20.4427 11.8587 22.125 13.5409 22.125 15.6087V18.3743ZM6.14062 7.17116C6.14062 7.10029 6.14831 5.41579 6.81633 3.71179C7.22817 2.66127 7.80572 1.81508 8.53303 1.19666C10.3104 -0.388135 13.5631 -0.409604 15.3532 1.19666C16.0758 1.81105 16.6611 2.65185 17.0929 3.69561C17.7947 5.39226 17.8566 7.07015 17.8589 7.14079C17.8756 7.65829 17.4698 8.09141 16.9523 8.10819C16.4386 8.12596 16.0017 7.72054 15.9849 7.20336C15.9844 7.18902 15.9263 5.75586 15.3434 4.37202C14.6354 2.69132 13.5308 1.87433 11.9662 1.87433C10.3542 1.87433 9.24605 2.68574 8.57831 4.35487C8.02767 5.73121 8.01562 7.15879 8.01558 7.17304C8.01352 7.68941 7.59427 8.10768 7.07812 8.10772H7.0762C6.55922 8.10669 6.14062 7.68819 6.14062 7.17116ZM16.875 20.2493C16.3572 20.2493 15.9375 19.8296 15.9375 19.3118V17.9055C15.9375 17.3886 15.5169 16.968 15 16.968H8.90625C8.38931 16.968 7.96875 17.3886 7.96875 17.9055V19.3118C7.91925 20.5557 6.14283 20.5547 6.09375 19.3118V17.9055C6.09375 16.3547 7.35544 15.093 8.90625 15.093H15C16.5508 15.093 17.8125 16.3547 17.8125 17.9055V19.3118C17.8125 19.8296 17.3928 20.2493 16.875 20.2493Z" fill="white" fill-opacity="0.5"/>
</svg>
