<svg width="24" height="24" viewBox="0 0 24 24" fill="none" xmlns="http://www.w3.org/2000/svg">
<path d="M19.4062 17.6703C17.7262 17.6703 16.3594 16.3035 16.3594 14.6235C16.3594 12.9434 17.7262 11.5766 19.4062 11.5766C21.0863 11.5766 22.4531 12.9434 22.4531 14.6235C22.4531 16.3035 21.0863 17.6703 19.4062 17.6703ZM19.4062 13.4516C18.7601 13.4516 18.2344 13.9773 18.2344 14.6235C18.2344 15.2696 18.7601 15.7953 19.4062 15.7953C20.0524 15.7953 20.5781 15.2696 20.5781 14.6235C20.5781 13.9773 20.0524 13.4516 19.4062 13.4516ZM11.9062 18.186C10.2262 18.186 8.85938 16.8191 8.85938 15.1391C8.85938 13.4591 10.2262 12.0922 11.9062 12.0922C13.5863 12.0922 14.9531 13.4591 14.9531 15.1391C14.9531 16.8191 13.5863 18.186 11.9062 18.186ZM11.9062 13.9672C11.2601 13.9672 10.7344 14.4929 10.7344 15.1391C10.7344 15.7853 11.2601 16.311 11.9062 16.311C12.5524 16.311 13.0781 15.7853 13.0781 15.1391C13.0781 14.4929 12.5524 13.9672 11.9062 13.9672ZM6.27961 23.108C6.31017 22.5911 5.916 22.1473 5.39911 22.1168C3.42295 21.9999 1.875 20.3556 1.875 18.3735V10.4858C1.875 9.32355 2.42672 8.20886 3.35081 7.50405L9.72581 2.64175C11.0648 1.62054 12.9352 1.62054 14.2742 2.64175L20.6492 7.50405C21.5733 8.20886 22.125 9.3235 22.125 10.4858C22.125 11.0036 22.5447 11.4233 23.0625 11.4233C23.5803 11.4233 24 11.0036 24 10.4858C24 8.74244 23.1724 7.07041 21.7863 6.01319L15.4113 1.15089C13.4027 -0.381027 10.5973 -0.381027 8.58872 1.15089L2.21372 6.01319C0.827578 7.07041 0 8.74239 0 10.4858V18.3735C0 21.3467 2.32294 23.813 5.28839 23.9885C5.30723 23.9896 5.32598 23.9902 5.34464 23.9902C5.83702 23.9901 6.25012 23.606 6.27961 23.108ZM9.65625 23.061C9.65625 22.0529 10.4867 21.2328 11.5074 21.2328H12.75C13.2678 21.2328 13.6875 20.8131 13.6875 20.2953C13.6875 19.7776 13.2678 19.3578 12.75 19.3578H11.5074C9.45277 19.3578 7.78125 21.0191 7.78125 23.061C7.78125 23.5788 8.20097 23.9985 8.71875 23.9985C9.23653 23.9985 9.65625 23.5787 9.65625 23.061ZM24 23.061C24 20.6601 22.0398 18.7068 19.6303 18.7068H18.9947C16.5852 18.7068 14.625 20.6601 14.625 23.061C14.625 23.5788 15.0447 23.9985 15.5625 23.9985C16.0803 23.9985 16.5 23.5788 16.5 23.061C16.5 21.694 17.6191 20.5818 18.9947 20.5818H19.6303C21.0059 20.5818 22.125 21.694 22.125 23.061C22.125 23.5788 22.5447 23.9985 23.0625 23.9985C23.5803 23.9985 24 23.5787 24 23.061Z" fill="white" fill-opacity="0.5"/>
</svg>
