<svg width="48" height="48" viewBox="0 0 48 48" fill="none" xmlns="http://www.w3.org/2000/svg">
<path fill-rule="evenodd" clip-rule="evenodd" d="M43.3467 46.8813C44.323 47.8576 45.9059 47.8576 46.8822 46.8813C47.8586 45.905 47.8586 44.3221 46.8822 43.3458L27.7904 24.2539L46.8822 5.16202C47.8586 4.18571 47.8586 2.6028 46.8822 1.62649C45.9059 0.650178 44.323 0.65018 43.3467 1.62649L24.2548 20.7184L5.16295 1.62649C4.18664 0.650179 2.60373 0.65018 1.62742 1.62649C0.651105 2.6028 0.651106 4.18571 1.62742 5.16202L20.7193 24.2539L1.62742 43.3458C0.651106 44.3221 0.651105 45.905 1.62742 46.8813C2.60373 47.8576 4.18664 47.8576 5.16295 46.8813L24.2548 27.7894L43.3467 46.8813Z" fill="#D11F3C"/>
</svg>
